<svg xmlns="http://www.w3.org/2000/svg" version="1.1" xmlns:xlink="http://www.w3.org/1999/xlink" xmlns:svgjs="http://svgjs.dev/svgjs" width="1440" height="560" preserveAspectRatio="none" viewBox="0 0 1440 560"><g mask="url(&quot;#SvgjsMask1270&quot;)" fill="none"><rect width="1440" height="560" x="0" y="0" fill="url(&quot;#SvgjsLinearGradient1271&quot;)"></rect><path d="M1440 0L784.85 0L1440 266.6z" fill="rgba(255, 255, 255, .1)"></path><path d="M784.85 0L1440 266.6L1440 350.94000000000005L553.14 0z" fill="rgba(255, 255, 255, .075)"></path><path d="M553.14 0L1440 350.94000000000005L1440 391.62000000000006L234.74 0z" fill="rgba(255, 255, 255, .05)"></path><path d="M234.74 0L1440 391.62000000000006L1440 421.0400000000001L157.12 0z" fill="rgba(255, 255, 255, .025)"></path><path d="M0 560L271.65 560L0 333.69z" fill="rgba(0, 0, 0, .1)"></path><path d="M0 333.69L271.65 560L413.98 560L0 159.73z" fill="rgba(0, 0, 0, .075)"></path><path d="M0 159.73000000000002L413.98 560L700.9300000000001 560L0 78.63000000000002z" fill="rgba(0, 0, 0, .05)"></path><path d="M0 78.63L700.9300000000001 560L1127.65 560L0 43.88999999999999z" fill="rgba(0, 0, 0, .025)"></path></g><defs><mask id="SvgjsMask1270"><rect width="1440" height="560" fill="#ffffff"></rect></mask><linearGradient x1="100%" y1="50%" x2="0%" y2="50%" gradientUnits="userSpaceOnUse" id="SvgjsLinearGradient1271"><stop stop-color="rgba(0, 0, 0, 1)" offset="0.86"></stop><stop stop-color="rgba(0, 0, 0, 1)" offset="1"></stop></linearGradient></defs></svg>